<svg width="801" height="716" viewBox="0 0 801 716" fill="none" xmlns="http://www.w3.org/2000/svg">
<path d="M325.889 4.05033C366.915 2.23504 394.888 56.4182 407.54 88.4159C411.741 99.0409 415.253 108.95 420.736 119.049C429.286 112.415 435.904 103.828 443.382 96.0921C466.579 72.0975 493.217 47.5769 525.582 36.9554C539.287 32.4582 555.455 30.2244 568.792 37.078C576.489 41.0309 582.145 47.7035 585.461 55.6346C600.48 91.5519 565.945 138.595 568.866 147.893C570.975 149.065 575.59 146.404 577.85 145.417C607.774 132.325 638.442 118.733 671.311 115.796C692.012 113.946 720.83 121.155 721.283 146.282C721.991 185.77 681.843 218.88 655.748 243.595C649.088 249.872 642.685 256.414 636.553 263.204C683.6 271.685 736.811 274.399 776.575 303.457C803.269 322.961 798.454 350.913 773.27 369.273C744.32 390.378 708.56 398.298 673.97 405.016C666.872 406.415 626.129 411.308 623.474 414.681C623.571 418.875 639.423 430.631 643.401 433.965C663.766 451.044 685.524 468.788 695.564 494.215C704.536 516.946 694.997 537.32 671.89 544.925C635.845 556.908 596.475 544.476 562.002 532.7C555.342 530.429 547.598 527.717 541.316 524.833C542.67 536.952 544.919 545.179 547.078 556.92C551.223 579.94 553.535 602.1 550.281 625.327C544.919 663.648 521.753 694.449 479.528 688.524C433.752 680.801 403.844 635.332 383.811 597.328C379.64 589.417 377.454 584.61 370.653 578.65C354.363 591.301 344.113 604.042 324.901 613.711C313.992 619.199 300.629 623.615 288.499 619.511C283.739 617.897 279.989 614.602 277.399 610.338C266.694 592.716 277.557 568.739 273.602 560.617C271.416 560.527 266.419 565.569 264.69 567.195C235.381 594.311 205.814 621.082 165.853 630.673C115.457 642.773 90.1829 611.577 111.132 564.353C120.558 541.549 135.203 521.753 150.265 502.426C157.714 492.867 168.721 481.924 174.981 471.797L175.335 471.219C164.957 468.573 152.261 469.339 141.592 469.628C119.539 470.222 98.7264 469.241 77.7342 462.46C40.7344 450.259 40.6715 424.014 70.1669 401.729C92.8053 384.628 116.965 377.608 142.076 365.769C130.111 358.706 120.191 355.872 107.338 351.622C79.6608 342.472 26.2314 317.404 21.5341 284.562C20.396 276.462 22.5301 268.243 27.4655 261.718C46.7674 236.56 98.9716 231.075 128.355 231.467C144.076 231.676 162.106 232.942 177.456 230.853C175.77 224.747 170.665 216.138 167.588 210.397C161.414 199.274 156.057 187.664 152.614 175.47C148.386 160.494 149.164 135.683 168.717 132.341C201.108 126.805 236.163 153.04 261.97 169C262.741 167.708 263.907 165.507 264.083 164.031C265.13 153.71 264.833 142.742 264.697 132.3C264.151 90.2555 271.659 10.1709 325.889 4.05033Z" fill="#F0F0F0"/>
</svg>
